<svg width="87" height="44" viewBox="0 0 87 44" fill="none" xmlns="http://www.w3.org/2000/svg">
<path d="M86.1998 20.7726C86.1998 20.7726 77.7581 24.8163 67.5248 23.1833C57.2916 21.5502 50.1353 14.8333 46.835 9.62313C43.5348 4.41293 40.9988 3.43115 40.9988 3.43115C43.6588 5.49191 46.17 12.1456 45.7482 16.0192C45.7333 16.1651 45.7085 16.306 45.6886 16.4518C45.7829 16.967 45.9566 17.3655 46.3636 17.9196C48.0757 20.2477 48.9839 20.0873 47.9566 21.0302C46.9293 21.9731 46.2395 22.1529 46.2395 22.1529C46.2395 22.1529 46.1601 22.532 46.3487 22.8965C46.5373 23.261 47.4057 23.7957 47.0435 24.272C46.6861 24.7483 45.6539 25.0496 45.6539 25.0496C45.6539 25.0496 46.6266 25.6329 46.5472 26.3425C46.4678 27.0521 44.9988 26.4883 44.84 27.9123C44.7854 28.3886 45.7631 29.7398 45.1328 30.5077C44.6464 31.1055 44.2593 31.4166 42.0112 31.5041C40.7705 31.5527 38.3288 31.1298 37.0534 34.1675C36.9144 35.9269 37.8325 37.56 37.8325 37.56C37.8325 37.56 43.6191 32.2282 50.6315 38.8285C57.644 45.4287 64.8201 43.4214 64.8201 43.4214C67.9467 42.9014 69.8623 41.7009 69.8623 41.7009C69.8623 41.7009 68.2444 42.0071 64.3636 40.8017C60.4876 39.5964 57.9318 36.6268 57.9318 36.6268C57.9318 36.6268 62.1502 37.8953 67.1576 37.0642C82.9492 34.4445 86.1998 20.7629 86.1998 20.7629V20.7726Z" fill="#4C485B"/>
<path d="M0.304688 21.5745C0.304688 21.5745 3.0491 33.8419 19.734 33.8419C36.4188 33.8419 38.6025 19.577 43.8432 13.4433C49.0888 7.30479 58.8506 0.169922 58.8506 0.169922C58.8506 0.169922 54.9201 0.597625 51.7141 2.16749C48.5082 3.73736 45.5206 4.81148 45.5206 4.81148C45.5206 4.81148 36.2948 -1.97346 27.7489 2.10917C19.198 6.19665 20.3245 17.7301 20.3245 17.7301C20.3245 17.7301 14.7116 24.9524 0.304688 21.5745Z" fill="#F6D357"/>
<path d="M47.0938 10.0219C47.0938 10.0219 50.4287 6.83847 53.1186 4.67079C55.8084 2.50311 58.8555 0.175044 58.8555 0.175044C58.8555 0.175044 60.7612 -0.208917 62.5875 0.175044C64.4138 0.559005 68.1161 2.53713 64.3791 9.68173C61.0987 15.9515 58.8555 17.3512 58.8555 17.3512C58.8555 17.3512 53.5851 17.3512 47.0987 10.0219H47.0938Z" fill="#E8A603"/>
</svg>
